<?xml version="1.0" encoding="UTF-8"?>
<svg version="1.1" xmlns="http://www.w3.org/2000/svg" width="100" height="100">
<path d="M0 0 C0.68023727 -0.00671722 1.36047455 -0.01343445 2.06132507 -0.02035522 C4.3062576 -0.03932421 6.55089079 -0.04325926 8.79589844 -0.04541016 C10.36285524 -0.05184049 11.92981084 -0.05856903 13.49676514 -0.06558228 C16.78188864 -0.07755345 20.06690701 -0.08126343 23.35205078 -0.08007812 C27.54622088 -0.07987532 31.73971048 -0.10713795 35.93371964 -0.14162254 C39.17153978 -0.16394805 42.40919788 -0.1679139 45.6470871 -0.16685867 C47.19234301 -0.16920765 48.73760387 -0.17799137 50.28278351 -0.19352341 C67.33853375 -0.34886883 67.33853375 -0.34886883 73.65802002 5.73794556 C78.14844904 10.81846364 79.40407439 14.4123986 79.44580078 21.13525391 C79.45251801 21.81549118 79.45923523 22.49572845 79.46615601 23.19657898 C79.485125 25.4415115 79.48906004 27.6861447 79.49121094 29.93115234 C79.49764127 31.49810914 79.50436981 33.06506474 79.51138306 34.63201904 C79.52335423 37.91714254 79.52706422 41.20216092 79.52587891 44.48730469 C79.5256761 48.68147479 79.55293874 52.87496439 79.58742332 57.06897354 C79.60974883 60.30679369 79.61371468 63.54445179 79.61265945 66.782341 C79.61500844 68.32759692 79.62379216 69.87285778 79.63932419 71.41803741 C79.79466961 88.47378766 79.79466961 88.47378766 73.70785522 94.79327393 C68.62733714 99.28370294 65.03340218 100.53932829 58.31054688 100.58105469 C57.29019096 100.59113052 57.29019096 100.59113052 56.2492218 100.60140991 C54.00428928 100.6203789 51.75965609 100.62431395 49.51464844 100.62646484 C47.94769164 100.63289518 46.38073604 100.63962372 44.81378174 100.64663696 C41.52865824 100.65860813 38.24363986 100.66231812 34.95849609 100.66113281 C30.76432599 100.66093 26.57083639 100.68819264 22.37682724 100.72267723 C19.13900709 100.74500274 15.90134899 100.74896858 12.66345978 100.74791336 C11.11820386 100.75026234 9.572943 100.75904606 8.02776337 100.77457809 C-9.02798688 100.92992352 -9.02798688 100.92992352 -15.34747314 94.84310913 C-19.83790216 89.76259104 -21.09352751 86.16865609 -21.13525391 79.44580078 C-21.14197113 78.76556351 -21.14868835 78.08532623 -21.15560913 77.38447571 C-21.17457812 75.13954319 -21.17851317 72.89490999 -21.18066406 70.64990234 C-21.1870944 69.08294554 -21.19382294 67.51598994 -21.20083618 65.94903564 C-21.21280735 62.66391215 -21.21651734 59.37889377 -21.21533203 56.09375 C-21.21512922 51.8995799 -21.24239186 47.7060903 -21.27687645 43.51208115 C-21.29920196 40.274261 -21.3031678 37.0366029 -21.30211258 33.79871368 C-21.30446156 32.25345777 -21.31324528 30.70819691 -21.32877731 29.16301727 C-21.48412274 12.10726703 -21.48412274 12.10726703 -15.39730835 5.78778076 C-10.31679026 1.29735174 -6.72285531 0.04172639 0 0 Z " fill="#475749" transform="translate(20.8447265625,-0.29052734375)"/>
<path d="M0 0 C3.875 1.875 3.875 1.875 5 3 C5.04254356 4.99954746 5.04080783 7.00041636 5 9 C5 9.66 5 10.32 5 11 C5.58007812 10.4225 6.16015625 9.845 6.7578125 9.25 C7.53898437 8.5075 8.32015625 7.765 9.125 7 C9.89070313 6.2575 10.65640625 5.515 11.4453125 4.75 C14.57861187 2.60364202 16.27534023 2.42221344 20 3 C23.50566803 8.25850204 22.51864241 14.88125444 22 21 C21.2375383 23.72975675 20.31298158 26.11568209 19.0703125 28.65625 C17.87207851 31.11454948 17.87207851 31.11454948 17.078125 34.36328125 C15.96501229 38.11802015 14.46172197 41.23462311 12.625 44.6875 C9.78672133 50.14635056 7.61177643 55.57196022 5.82421875 61.4765625 C5.06584845 63.79839765 4.15439261 65.85252729 3 68 C0.5625 67.3125 0.5625 67.3125 -2 66 C-3.24465498 62.21821049 -2.92197341 59.82291015 -1.56640625 56.13671875 C-1.0878418 54.80737305 -1.0878418 54.80737305 -0.59960938 53.45117188 C-0.25736328 52.53916016 0.08488281 51.62714844 0.4375 50.6875 C0.77587891 49.75615234 1.11425781 48.82480469 1.46289062 47.86523438 C2.29766112 45.57255484 3.14360553 43.28467118 4 41 C-1.20576032 41.5422667 -6.48807618 42.17852742 -11 45 C-12.96408899 47.46540743 -14.15512223 50.10729405 -15.375 53 C-16.02748557 54.43802702 -16.68108994 55.87554705 -17.3359375 57.3125 C-17.60970215 57.94800781 -17.8834668 58.58351562 -18.16552734 59.23828125 C-19 61 -19 61 -21 64 C-23.4375 63.625 -23.4375 63.625 -26 63 C-28.19530248 58.60939505 -26.33615681 53.11921977 -24.9921875 48.64453125 C-22.81612109 42.36952214 -20.33369807 36.5621026 -17.32470703 30.64770508 C-16.00640318 28.01279811 -14.76113441 25.35476149 -13.53515625 22.67578125 C-12.92317383 21.35030273 -12.92317383 21.35030273 -12.29882812 19.99804688 C-11.47083347 18.19948028 -10.65057612 16.39733259 -9.83789062 14.59179688 C-7.19410523 8.90869913 -4.29705517 4.57226685 0 0 Z " fill="#F9F9F9" transform="translate(52,16)"/>
<path d="M0 0 C1.5542973 4.6628919 -0.25838158 7.90138412 -2.12109375 12.30078125 C-4 15 -4 15 -6.78515625 16.23046875 C-9.55829213 16.70637465 -12.1883243 16.9803035 -15 17 C-13.584092 12.54428953 -11.39547334 10.04758866 -8.0625 6.8125 C-7.18722656 5.95269531 -6.31195313 5.09289063 -5.41015625 4.20703125 C-3 2 -3 2 0 0 Z " fill="#4F5E51" transform="translate(65,31)"/>
</svg>
